<svg xmlns="http://www.w3.org/2000/svg" x="0px" y="0px" width="100" height="100" viewBox="0,0,256,256">
<g fill="#c15f3c" fill-rule="nonzero" stroke="none" stroke-width="1" stroke-linecap="butt" stroke-linejoin="miter" stroke-miterlimit="10" stroke-dasharray="" stroke-dashoffset="0" font-family="none" font-weight="none" font-size="none" text-anchor="none" style="mix-blend-mode: normal"><g transform="scale(10.66667,10.66667)"><path d="M12,4c-2.33449,0 -4.29939,1.2495 -5.57031,3.01367c-3.54423,0.04022 -6.42969,2.93293 -6.42969,6.48633c0,3.57827 2.92173,6.5 6.5,6.5h12c3.02558,0 5.5,-2.47442 5.5,-5.5c0,-2.99036 -2.42297,-5.4238 -5.40039,-5.48047c-0.86967,-2.87796 -3.44751,-5.01953 -6.59961,-5.01953zM12,6c2.50453,0 4.55398,1.82549 4.93164,4.21484l0.15234,0.96094l0.96484,-0.125c0.22335,-0.02908 0.36607,-0.05078 0.45117,-0.05078c1.94442,0 3.5,1.55558 3.5,3.5c0,1.94442 -1.55558,3.5 -3.5,3.5h-5.5v-4h3l-4,-4l-4,4h3v4h-4.5c-2.49773,0 -4.5,-2.00227 -4.5,-4.5c0,-2.49773 2.00227,-4.5 4.5,-4.5c0.03499,0 0.11646,0.00699 0.25,0.01367l0.61133,0.03125l0.30469,-0.53125c0.86409,-1.50132 2.47187,-2.51367 4.33398,-2.51367z"></path></g></g>
</svg>
